<svg width="221" height="60" viewBox="0 0 221 60" fill="none" xmlns="http://www.w3.org/2000/svg">
<g clip-path="url(#clip0)">
<path d="M103.49 20.1467H103.381C103.185 20.1428 102.99 20.1791 102.808 20.2532C102.626 20.3274 102.462 20.438 102.324 20.5781C102.186 20.7182 102.079 20.8849 102.008 21.068C101.937 21.2512 101.904 21.4468 101.912 21.6431C101.919 21.8393 101.966 22.032 102.051 22.2093C102.135 22.3866 102.255 22.5447 102.403 22.6741C102.551 22.8034 102.723 22.9013 102.91 22.9616C103.097 23.0219 103.294 23.0434 103.49 23.0248H110.939V38.8374C110.985 39.221 111.173 39.5733 111.467 39.8242C111.76 40.0752 112.138 40.2064 112.524 40.1918C112.925 40.2102 113.317 40.0687 113.614 39.7983C113.911 39.5278 114.089 39.1506 114.108 38.7494V23.0248H122.113C122.309 23.0278 122.504 22.9909 122.685 22.9161C122.867 22.8414 123.031 22.7304 123.168 22.59C123.305 22.4496 123.412 22.2827 123.482 22.0996C123.552 21.9164 123.585 21.7209 123.577 21.5248C123.569 21.3288 123.521 21.1365 123.436 20.9595C123.352 20.7826 123.232 20.6248 123.084 20.4958C122.936 20.3668 122.764 20.2693 122.577 20.2092C122.39 20.1492 122.193 20.1279 121.998 20.1467H103.49ZM151.571 20.1467H151.442C151.08 20.1624 150.735 20.3078 150.47 20.5563C150.205 20.8048 150.039 21.14 150 21.5011V38.3972C150.023 38.7942 150.2 39.1666 150.493 39.4348C150.787 39.7031 151.174 39.8459 151.571 39.8329H166.754C166.95 39.8352 167.144 39.7975 167.325 39.7221C167.506 39.6468 167.67 39.5354 167.806 39.3947C167.943 39.254 168.049 39.087 168.119 38.9039C168.188 38.7207 168.22 38.5253 168.212 38.3295C168.204 38.1337 168.155 37.9417 168.07 37.7651C167.985 37.5885 167.865 37.4311 167.718 37.3024C167.57 37.1738 167.397 37.0766 167.211 37.0168C167.024 36.9571 166.827 36.936 166.632 36.9548H153.223V32.1467H164.6C164.98 32.1369 165.341 31.9842 165.612 31.7192C165.883 31.4542 166.045 31.0965 166.063 30.7178C166.039 30.3202 165.86 29.9478 165.566 29.6797C165.271 29.4116 164.883 29.269 164.485 29.2821H153.223V23.0248H166.767C167.15 23.0168 167.516 22.8643 167.791 22.5981C168.066 22.3318 168.23 21.9714 168.251 21.5891C168.228 21.1854 168.046 20.8071 167.746 20.5369C167.445 20.2666 167.049 20.1263 166.646 20.1467H151.591H151.571ZM73.8488 20.5056L65.1332 33.86L56.4176 20.5056L56.3499 20.4108C56.1976 20.2265 56.0061 20.0786 55.7893 19.9779C55.5726 19.8771 55.3361 19.826 55.0971 19.8284C54.7115 19.8153 54.335 19.9471 54.0417 20.1978C53.7484 20.4485 53.5596 20.7998 53.5124 21.1828V21.2708V38.8239C53.5581 39.2074 53.7465 39.5597 54.0401 39.8107C54.3337 40.0617 54.7111 40.1929 55.0971 40.1783C55.4979 40.193 55.8883 40.0491 56.1837 39.7778C56.4791 39.5065 56.6556 39.1297 56.6749 38.729V26.4649L63.8126 37.3002L63.9007 37.4153C64.0243 37.5635 64.1762 37.6855 64.3476 37.7742C64.7117 37.9634 65.1325 38.0127 65.5305 37.9129C65.9285 37.8131 66.2762 37.571 66.5079 37.2324L73.5914 26.4582V38.7155C73.6177 39.117 73.7957 39.4935 74.0894 39.7685C74.383 40.0436 74.7703 40.1966 75.1727 40.1966C75.575 40.1966 75.9623 40.0436 76.256 39.7685C76.5496 39.4935 76.7277 39.117 76.7539 38.7155V21.3047V21.2166V21.1083C76.6901 20.739 76.4942 20.4054 76.2026 20.1699C75.9111 19.9344 75.5438 19.813 75.1693 19.8284C74.9053 19.8217 74.6438 19.8799 74.4076 19.998C74.1715 20.1161 73.9679 20.2904 73.8149 20.5056H73.8488ZM84.6501 26.9661V26.8713C84.7829 25.8793 85.2261 24.9548 85.9165 24.2302C86.9526 23.167 88.5102 22.6184 90.5418 22.5981C92.5734 22.5778 94.2054 23.1534 95.2822 24.2302C96.0484 25.0477 96.5078 26.1054 96.5824 27.2234V29.255H84.6501V26.9661ZM90.7449 19.8284H89.9729C87.1828 19.9503 85.009 20.7697 83.5124 22.3002C82.3049 23.5555 81.5846 25.2002 81.4808 26.939V38.7155C81.5071 39.117 81.6851 39.4935 81.9788 39.7685C82.2724 40.0436 82.6597 40.1966 83.0621 40.1966C83.4644 40.1966 83.8517 40.0436 84.1454 39.7685C84.439 39.4935 84.617 39.117 84.6433 38.7155V32.1805H96.5689V38.7155C96.6053 39.1088 96.7873 39.4742 97.0792 39.7403C97.3711 40.0063 97.7518 40.1538 98.1467 40.1538C98.5417 40.1538 98.9224 40.0063 99.2142 39.7403C99.5061 39.4742 99.6881 39.1088 99.7246 38.7155V27.088V26.8171C99.6045 25.1221 98.8842 23.5255 97.693 22.3137C96.1625 20.702 93.8194 19.8758 90.7449 19.8284ZM142.09 21.264V29.2889H130.232V21.1625C130.168 20.7883 129.973 20.4491 129.682 20.2046C129.392 19.9602 129.024 19.8261 128.644 19.8261C128.265 19.8261 127.897 19.9602 127.607 20.2046C127.316 20.4491 127.121 20.7883 127.056 21.1625V38.8306C127.124 39.2112 127.326 39.5546 127.627 39.7978C127.927 40.041 128.305 40.1677 128.691 40.1545C129.078 40.1413 129.446 39.9892 129.729 39.7261C130.012 39.463 130.191 39.1065 130.232 38.7223V32.1873H142.104V38.8306C142.166 39.2165 142.367 39.5665 142.669 39.8149C142.97 40.0633 143.352 40.193 143.743 40.1797C144.134 40.1664 144.506 40.011 144.79 39.7427C145.074 39.4743 145.251 39.1115 145.287 38.7223V21.1692C145.239 20.7851 145.05 20.4327 144.755 20.1819C144.46 19.9311 144.082 19.8 143.695 19.8148C143.294 19.7964 142.902 19.938 142.605 20.2084C142.308 20.4788 142.13 20.856 142.111 21.2573L142.09 21.264ZM193.632 20.492L184.916 33.86L176.201 20.5056L176.133 20.4108C175.977 20.226 175.782 20.0781 175.562 19.9774C175.342 19.8768 175.102 19.8259 174.86 19.8284C174.475 19.8155 174.1 19.9475 173.807 20.1983C173.515 20.4491 173.328 20.8004 173.282 21.1828V38.79C173.337 39.1784 173.534 39.5328 173.834 39.7852C174.134 40.0377 174.517 40.1703 174.909 40.1577C175.301 40.1451 175.675 39.9882 175.958 39.717C176.242 39.4458 176.415 39.0795 176.445 38.6884V26.4717L183.582 37.3069L183.664 37.4221C183.79 37.5703 183.944 37.6923 184.117 37.781C184.355 37.9063 184.62 37.9714 184.889 37.9706C185.158 37.9701 185.422 37.903 185.659 37.7754C185.895 37.6478 186.096 37.4635 186.244 37.2392L193.321 26.4649V38.7155C193.357 39.1105 193.54 39.4776 193.833 39.7449C194.126 40.0121 194.509 40.1603 194.905 40.1603C195.302 40.1603 195.684 40.0121 195.977 39.7449C196.271 39.4776 196.453 39.1105 196.49 38.7155V21.3047V21.2166V21.1083C196.425 20.7438 196.231 20.4147 195.944 20.181C195.657 19.9473 195.296 19.8246 194.925 19.8351C194.662 19.8302 194.401 19.8892 194.165 20.0072C193.929 20.1251 193.725 20.2984 193.571 20.5123L193.632 20.492ZM204.995 26.9728C205.124 25.9556 205.575 25.0062 206.282 24.264C207.312 23.2008 208.876 22.6523 210.907 22.632C212.939 22.6117 214.564 23.1873 215.607 24.264C216.376 25.0797 216.836 26.1385 216.907 27.2573V29.2889H205.05L204.995 26.9728ZM210.643 19.8419C207.704 19.9096 205.415 20.7358 203.871 22.3205C202.661 23.5738 201.94 25.2197 201.84 26.9593V26.9999C201.841 27.0134 201.841 27.027 201.84 27.0406V38.7223C201.876 39.1155 202.058 39.481 202.35 39.747C202.642 40.0131 203.023 40.1606 203.418 40.1606C203.813 40.1606 204.193 40.0131 204.485 39.747C204.777 39.481 204.959 39.1155 204.995 38.7223V32.1805H216.907V38.7223C216.934 39.1238 217.112 39.5002 217.405 39.7753C217.699 40.0503 218.086 40.2034 218.489 40.2034C218.891 40.2034 219.278 40.0503 219.572 39.7753C219.866 39.5002 220.044 39.1238 220.07 38.7223V27.088V26.8374C219.978 25.1583 219.291 23.5668 218.133 22.3476C216.562 20.7358 214.212 19.9096 211.158 19.8622L210.643 19.8419Z" fill="#b80743"/>
<path fill-rule="evenodd" clip-rule="evenodd" d="M0.108359 59.2957C3.22348 62.6343 29.9797 54.0271 30.6501 33.0339C30.8804 25.7336 27.3725 23.2144 25.307 23.2144C24.6947 23.2212 24.0897 23.3478 23.526 23.5869C12.1896 28.1445 -1.35439 56.7765 0.108359 59.2957ZM30.7517 15.9074C30.7909 16.2769 30.9364 16.6271 31.1704 16.9157C31.4044 17.2043 31.717 17.4189 32.0704 17.5336C32.4239 17.6483 32.8029 17.6582 33.1618 17.562C33.5207 17.4659 33.8441 17.2679 34.0928 16.9919C34.3416 16.7159 34.5051 16.3737 34.5635 16.0068C34.6219 15.6399 34.5729 15.2639 34.4222 14.9243C34.2715 14.5847 34.0256 14.296 33.7144 14.0931C33.4031 13.8902 33.0397 13.7818 32.6682 13.781C32.3191 13.8229 31.9787 13.9188 31.6591 14.0655C31.6591 14.0655 34.368 8.8307 38.7562 10.07C44.851 11.7833 47.6208 30.535 30.8871 48.3657C30.8296 48.4261 30.7959 48.5053 30.7923 48.5887C30.7886 48.672 30.8153 48.7539 30.8673 48.8191C30.9193 48.8843 30.9932 48.9285 31.0753 48.9435C31.1573 48.9585 31.2421 48.9433 31.3138 48.9007C43.842 40.2935 51.5892 19.1038 42.7111 7.36795C43.5914 5.93228 44.3838 1.95034 43.0497 0C41.5508 1.46759 39.968 2.84689 38.3093 4.13093C38.3093 4.13093 32.7088 1.22573 27.2506 4.38149C27.5305 3.17712 27.3288 1.91103 26.6885 0.853273C23.9187 5.26862 23.1738 9.28442 24.9549 14.5598C24.6452 15.1355 24.5311 15.7963 24.6298 16.4424C25.1851 17.7088 25.9842 17.5937 26.377 17.4921C27.1658 18.6586 28.0252 19.7759 28.9503 20.8375C29.7494 18.4199 30.4266 16.5576 30.7517 15.9074Z" fill="url(#paint0_linear)"/>
</g>
<defs>
<linearGradient id="paint0_linear" x1="-2.49887" y1="56.702" x2="48.623" y2="5.57337" gradientUnits="userSpaceOnUse">
<stop stop-color="#E2E3E7"/>
<stop offset="0.17" stop-color="#DEDFE3"/>
<stop offset="0.34" stop-color="#D2D4D8"/>
<stop offset="0.51" stop-color="#BFC0C5"/>
<stop offset="0.67" stop-color="#A3A5AB"/>
<stop offset="0.84" stop-color="#7F8389"/>
<stop offset="1" stop-color="#54585F"/>
</linearGradient>
<clipPath id="clip0">
<rect width="220.124" height="60" fill="white"/>
</clipPath>
</defs>
</svg>
