<?xml version="1.0" encoding="UTF-8" standalone="no"?>
<svg
   width="840"
   height="840"
   viewBox="0 0 1075.2 1075.2"
   class="icon"
   version="1.1"
   id="svg4"
   sodipodi:docname="tomatoCardsLogo.svg"
   inkscape:version="1.4 (e7c3feb1, 2024-10-09)"
   xmlns:inkscape="http://www.inkscape.org/namespaces/inkscape"
   xmlns:sodipodi="http://sodipodi.sourceforge.net/DTD/sodipodi-0.dtd"
   xmlns="http://www.w3.org/2000/svg"
   xmlns:svg="http://www.w3.org/2000/svg">
  <sodipodi:namedview
     id="namedview1"
     pagecolor="#ffffff"
     bordercolor="#000000"
     borderopacity="0.25"
     inkscape:showpageshadow="2"
     inkscape:pageopacity="0.0"
     inkscape:pagecheckerboard="0"
     inkscape:deskcolor="#d1d1d1"
     inkscape:zoom="0.47321946"
     inkscape:cx="212.37504"
     inkscape:cy="496.59834"
     inkscape:window-width="1712"
     inkscape:window-height="967"
     inkscape:window-x="0"
     inkscape:window-y="39"
     inkscape:window-maximized="1"
     inkscape:current-layer="g1" />
  <defs
     id="defs4" />
  <g
     id="g1"
     transform="translate(-244.92475,-61.436518)">
    <g
       id="g5"
       transform="matrix(0.97148394,0,0,0.97148394,116.55225,-168.85617)">
      <g
         id="g3">
        <rect
           style="opacity:0.99;fill:#ff0000;fill-opacity:0;stroke:#ff6347;stroke-width:46.115;stroke-linecap:round;stroke-linejoin:round;stroke-dasharray:none;stroke-opacity:1"
           id="rect1"
           width="1007.6948"
           x="181.84715"
           y="442.17865"
           rx="151.15422"
           ry="151.15422"
           height="651.6427"
           transform="translate(-1.8528356e-6)"
           inkscape:label="Frame" />
        <path
           style="color:#000000;font-style:normal;font-variant:normal;font-weight:normal;font-stretch:normal;font-size:medium;line-height:normal;font-family:Sans;-inkscape-font-specification:Sans;text-indent:0;text-align:start;text-decoration:none;text-decoration-line:none;letter-spacing:normal;word-spacing:normal;text-transform:none;writing-mode:lr-tb;direction:ltr;baseline-shift:baseline;text-anchor:start;display:inline;overflow:visible;visibility:visible;fill:#000000;fill-opacity:1;stroke:none;stroke-width:25.6;stroke-dasharray:none;marker:none;enable-background:accumulate"
           d="m 443.90621,566.94618 c -51.65942,0 -93.82513,42.16567 -93.82513,93.82511 0,51.6594 42.16571,93.82512 93.82513,93.82512 51.65942,0 93.82511,-42.16573 93.82511,-93.82512 0,-51.65944 -42.16569,-93.82511 -93.82511,-93.82511 z m 0,26.80719 c 37.17175,0 67.01795,29.84614 67.01795,67.01792 0,37.17171 -29.8462,67.01794 -67.01795,67.01794 -37.17175,0 -67.01795,-29.84623 -67.01795,-67.01794 0,-37.17178 29.8462,-67.01792 67.01795,-67.01792 z m -67.01795,178.71451 c -24.15508,0 -52.04714,8.61404 -75.11594,26.24869 -23.0688,17.63466 -41.04849,45.44577 -41.04849,80.98002 v 75.95358 a 13.404929,13.404929 0 0 0 13.40359,13.40365 H 613.685 a 13.404929,13.404929 0 0 0 13.40358,-13.40365 v -75.95358 c 0,-35.53426 -17.9797,-63.34537 -41.04849,-80.98002 -23.06879,-17.63465 -50.96086,-26.24869 -75.11593,-26.24869 z m 0,26.80717 h 134.0359 c 17.36685,0 40.84917,7.09654 58.7803,20.80349 17.93116,13.7074 30.57694,32.87027 30.57694,59.61805 v 62.55004 H 287.53102 v -62.55004 c 0,-26.74779 12.64578,-45.91066 30.57691,-59.61806 17.93116,-13.70695 41.41348,-20.80349 58.78033,-20.80348 z"
           id="path1"
           inkscape:label="Avatar" />
        <g
           id="g6"
           inkscape:label="Three lines">
          <g
             id="g2"
             inkscape:label="Line 1">
            <path
               style="opacity:0.99;fill:#930000;fill-opacity:0;stroke:#000000;stroke-width:25.6;stroke-linecap:round;stroke-linejoin:round;stroke-dasharray:none;stroke-opacity:1"
               d="M 688.0787,623.99558 H 990.2163"
               id="path2"
               inkscape:label="Line 1.1" />
            <path
               style="opacity:0.99;fill:#930000;fill-opacity:0;stroke:#000000;stroke-width:25.6;stroke-linecap:round;stroke-linejoin:round;stroke-dasharray:none;stroke-opacity:1"
               d="m 1049.4761,623.99558 h 29.0382"
               id="path2-7"
               inkscape:label="Line 1.2" />
          </g>
          <path
             style="opacity:0.99;fill:#930000;fill-opacity:0;stroke:#000000;stroke-width:25.6;stroke-linecap:round;stroke-linejoin:round;stroke-dasharray:none;stroke-opacity:1"
             d="m 688.0787,909.79936 h 388.9408"
             id="path2-4"
             inkscape:label="Line 3" />
          <path
             style="opacity:0.99;fill:#930000;fill-opacity:0;stroke:#000000;stroke-width:25.6;stroke-linecap:round;stroke-linejoin:round;stroke-dasharray:none;stroke-opacity:1"
             d="m 688.0787,767.19298 h 390.4356"
             id="path2-8"
             inkscape:label="Line 2" />
        </g>
      </g>
      <g
         id="g4"
         transform="matrix(0.68522112,0,0,0.68522112,349.4794,264.88841)"
         style="display:inline">
        <path
           d="m 533.33333,490.688 c 40.896,-93.33333 23.65867,-135.70133 -16.192,-213.35467 54.528,71.04 127.296,149.35467 229.52534,85.35467 C 668.88533,342.016 682.96533,282.21867 586.368,265.25867 658.816,268.288 697.13067,290.944 746.66667,192.02133 668.672,233.06667 623.104,143.12533 521.74933,235.79733 504.64,246.42133 486.67733,219.456 472.96,234.06933 399.78667,112.448 312.832,221.14133 277.33333,128.02133 c 0,143.18934 137.42934,104.23467 170.66667,128 C 318.63467,245.12 328.59733,343.57333 234.66667,362.688 c 123.56266,53.33333 203.75466,1.344 236.20266,-87.27467 -5.07733,34.624 -48.768,147.328 62.464,215.27467 z"
           fill="#4caf50"
           id="path3"
           inkscape:label="Leaf"
           style="fill:#66b83a;fill-opacity:1" />
        <path
           d="m 469.35467,257.28 c -0.55467,4.20267 8.36266,20.05333 37.29066,20.05333 34.624,0 21.35467,-17.25866 21.35467,-17.25866 0,0 -3.17867,-99.62667 69.33333,-165.461337 C 578.92267,79.36 559.552,87.530666 559.552,87.530667 c 0,1e-6 -77.41867,79.936003 -90.19733,169.749333 z"
           fill="#4caf50"
           id="path4"
           inkscape:label="Stem"
           style="fill:#66b83a;fill-opacity:1" />
      </g>
    </g>
    <g
       id="text6"
       style="font-size:117.964px;-inkscape-font-specification:sans-serif;opacity:0.99;fill:#930000;fill-opacity:0;stroke:#b03732;stroke-width:9.83037;stroke-linecap:round;stroke-linejoin:round"
       aria-label="tomato.cards"
       inkscape:label="Text"
       transform="translate(29.608761,83.851159)">
      <path
         style="font-family:Poppins;-inkscape-font-specification:Poppins;fill:#000000;fill-opacity:1;stroke:none"
         d="m 376.9565,885.21438 v 38.10237 q 0,4.71856 2.00539,6.72395 2.00538,1.88742 6.95987,1.88742 h 7.90359 v 9.08323 h -9.67305 q -8.96526,0 -13.44789,-4.12874 -4.48264,-4.12874 -4.48264,-13.56586 v -38.10237 h -8.37544 v -8.8473 h 8.37544 v -16.27903 h 10.73473 v 16.27903 h 16.86885 v 8.8473 z m 58.03832,56.85865 q -9.08322,0 -16.51496,-4.12874 -7.31376,-4.12874 -11.56047,-11.67844 -4.12874,-7.66766 -4.12874,-17.6946 0,-9.90897 4.24671,-17.45867 4.36466,-7.66766 11.7964,-11.67843 7.43173,-4.12874 16.63292,-4.12874 9.20119,0 16.63292,4.12874 7.43174,4.01077 11.67844,11.56047 4.36467,7.54969 4.36467,17.57663 0,10.02694 -4.48264,17.6946 -4.36466,7.5497 -11.91436,11.67844 -7.54969,4.12874 -16.75089,4.12874 z m 0,-9.43712 q 5.78024,0 10.85269,-2.71317 5.07245,-2.71318 8.13952,-8.13952 3.18503,-5.42634 3.18503,-13.21197 0,-7.78562 -3.06707,-13.21196 -3.06706,-5.42635 -8.02155,-8.02156 -4.95449,-2.71317 -10.73472,-2.71317 -5.8982,0 -10.85269,2.71317 -4.83653,2.59521 -7.78563,8.02156 -2.9491,5.42634 -2.9491,13.21196 0,7.90359 2.83114,13.32994 2.9491,5.42634 7.78562,8.13951 4.83653,2.59521 10.61676,2.59521 z m 125.04177,-57.44847 q 7.5497,0 13.4479,3.18503 5.8982,3.06706 9.31915,9.31916 3.42096,6.25209 3.42096,15.21735 v 38.10237 h -10.61676 v -36.56884 q 0,-9.67304 -4.83653,-14.7455 -4.71856,-5.19041 -12.85807,-5.19041 -8.37545,0 -13.32993,5.42634 -4.95449,5.30838 -4.95449,15.45329 v 35.62512 h -10.61676 v -36.56884 q 0,-9.67304 -4.83653,-14.7455 -4.71856,-5.19041 -12.85807,-5.19041 -8.37544,0 -13.32993,5.42634 -4.95449,5.30838 -4.95449,15.45329 v 35.62512 h -10.73472 v -64.64427 h 10.73472 v 9.31916 q 3.18503,-5.07245 8.49341,-7.78563 5.42634,-2.71317 11.91436,-2.71317 8.13952,0 14.39161,3.65689 6.25209,3.65688 9.31915,10.73472 2.71318,-6.84191 8.96527,-10.61676 6.25209,-3.77485 13.91975,-3.77485 z m 39.75394,33.26585 q 0,-9.90898 4.01078,-17.34071 4.01077,-7.54969 10.97065,-11.67843 7.07784,-4.12874 15.68921,-4.12874 8.49341,0 14.7455,3.65688 6.25209,3.65688 9.31916,9.20119 v -11.7964 h 10.85268 v 64.64427 h -10.85268 v -12.03233 q -3.18503,5.66228 -9.55509,9.43712 -6.25209,3.65689 -14.62753,3.65689 -8.61138,0 -15.57125,-4.24671 -6.95988,-4.2467 -10.97065,-11.91436 -4.01078,-7.66766 -4.01078,-17.45867 z m 54.7353,0.11796 q 0,-7.31376 -2.9491,-12.74011 -2.9491,-5.42634 -8.02156,-8.25748 -4.95448,-2.9491 -10.97065,-2.9491 -6.01616,0 -10.97065,2.83114 -4.95449,2.83113 -7.90359,8.25748 -2.9491,5.42634 -2.9491,12.74011 0,7.43173 2.9491,12.97604 2.9491,5.42634 7.90359,8.37544 4.95449,2.83114 10.97065,2.83114 6.01617,0 10.97065,-2.83114 5.07246,-2.9491 8.02156,-8.37544 2.9491,-5.54431 2.9491,-12.85808 z m 42.11322,-23.35687 v 38.10237 q 0,4.71856 2.00539,6.72395 2.00539,1.88742 6.95988,1.88742 h 7.90359 v 9.08323 h -9.67305 q -8.96527,0 -13.4479,-4.12874 -4.48263,-4.12874 -4.48263,-13.56586 v -38.10237 h -8.37544 v -8.8473 h 8.37544 v -16.27903 h 10.73472 v 16.27903 h 16.86886 v 8.8473 z m 58.03833,56.85865 q -9.08323,0 -16.51496,-4.12874 -7.31377,-4.12874 -11.56047,-11.67844 -4.12874,-7.66766 -4.12874,-17.6946 0,-9.90897 4.2467,-17.45867 4.36467,-7.66766 11.7964,-11.67843 7.43173,-4.12874 16.63293,-4.12874 9.20119,0 16.63292,4.12874 7.43173,4.01077 11.67844,11.56047 4.36466,7.54969 4.36466,17.57663 0,10.02694 -4.48263,17.6946 -4.36467,7.5497 -11.91436,11.67844 -7.5497,4.12874 -16.75089,4.12874 z m 0,-9.43712 q 5.78024,0 10.85269,-2.71317 5.07245,-2.71318 8.13951,-8.13952 3.18503,-5.42634 3.18503,-13.21197 0,-7.78562 -3.06706,-13.21196 -3.06707,-5.42635 -8.02155,-8.02156 -4.95449,-2.71317 -10.73473,-2.71317 -5.8982,0 -10.85269,2.71317 -4.83652,2.59521 -7.78562,8.02156 -2.9491,5.42634 -2.9491,13.21196 0,7.90359 2.83114,13.32994 2.9491,5.42634 7.78562,8.13951 4.83652,2.59521 10.61676,2.59521 z"
         id="path5"
         inkscape:label="tomato" />
      <path
         style="font-family:Poppins;-inkscape-font-specification:Poppins;fill:#ff6347;fill-opacity:1;stroke:none"
         d="m 805.40183,941.71914 q -3.06707,0 -5.19042,-2.12336 -2.12335,-2.12335 -2.12335,-5.19041 0,-3.06707 2.12335,-5.19042 2.12335,-2.12335 5.19042,-2.12335 2.9491,0 4.95449,2.12335 2.12335,2.12335 2.12335,5.19042 0,3.06706 -2.12335,5.19041 -2.00539,2.12336 -4.95449,2.12336 z"
         id="path6"
         inkscape:label="dot" />
      <path
         style="font-family:Poppins;-inkscape-font-specification:Poppins;fill:#000000;fill-opacity:1;stroke:none"
         d="m 822.7424,908.57125 q 0,-10.02694 4.01078,-17.45867 4.01078,-7.54969 11.08862,-11.67843 7.1958,-4.12874 16.39699,-4.12874 11.91437,0 19.58202,5.78023 7.78563,5.78024 10.26287,16.04311 h -11.56047 q -1.6515,-5.8982 -6.48802,-9.31916 -4.71856,-3.42096 -11.7964,-3.42096 -9.20119,0 -14.86346,6.37006 -5.66227,6.25209 -5.66227,17.81256 0,11.67844 5.66227,18.04849 5.66227,6.37006 14.86346,6.37006 7.07784,0 11.7964,-3.30299 4.71856,-3.30299 6.48802,-9.43712 h 11.56047 q -2.59521,9.90897 -10.38083,15.92514 -7.78562,5.8982 -19.46406,5.8982 -9.20119,0 -16.39699,-4.12874 -7.07784,-4.12874 -11.08862,-11.67844 -4.01078,-7.54969 -4.01078,-17.6946 z m 71.60419,-0.11796 q 0,-9.90898 4.01078,-17.34071 4.01077,-7.54969 10.97065,-11.67843 7.07784,-4.12874 15.68921,-4.12874 8.49341,0 14.7455,3.65688 6.25209,3.65688 9.31916,9.20119 v -11.7964 h 10.85268 v 64.64427 h -10.85268 v -12.03233 q -3.18503,5.66228 -9.55509,9.43712 -6.25209,3.65689 -14.62753,3.65689 -8.61138,0 -15.57125,-4.24671 -6.95988,-4.2467 -10.97065,-11.91436 -4.01078,-7.66766 -4.01078,-17.45867 z m 54.7353,0.11796 q 0,-7.31376 -2.9491,-12.74011 -2.9491,-5.42634 -8.02156,-8.25748 -4.95448,-2.9491 -10.97065,-2.9491 -6.01616,0 -10.97065,2.83114 -4.95449,2.83113 -7.90359,8.25748 -2.9491,5.42634 -2.9491,12.74011 0,7.43173 2.9491,12.97604 2.9491,5.42634 7.90359,8.37544 4.95449,2.83114 10.97065,2.83114 6.01617,0 10.97065,-2.83114 5.07246,-2.9491 8.02156,-8.37544 2.9491,-5.54431 2.9491,-12.85808 z m 39.75398,-21.70537 q 2.83113,-5.54431 8.02155,-8.61137 5.30838,-3.06707 12.85808,-3.06707 v 11.08862 h -2.8311 q -18.04853,0 -18.04853,19.58202 v 35.15327 h -10.73473 v -64.64427 h 10.73473 z m 29.25493,21.58741 q 0,-9.90898 4.0108,-17.34071 4.0107,-7.54969 10.9706,-11.67843 7.0779,-4.12874 15.8072,-4.12874 7.5497,0 14.0377,3.53892 6.488,3.42095 9.909,9.08322 v -34.20956 h 10.8527 v 87.29336 h -10.8527 v -12.15029 q -3.185,5.78024 -9.4371,9.55508 -6.2521,3.65689 -14.6276,3.65689 -8.6113,0 -15.6892,-4.24671 -6.9599,-4.2467 -10.9706,-11.91436 -4.0108,-7.66766 -4.0108,-17.45867 z m 54.7353,0.11796 q 0,-7.31376 -2.9491,-12.74011 -2.9491,-5.42634 -8.0216,-8.25748 -4.9545,-2.9491 -10.9706,-2.9491 -6.0162,0 -10.9707,2.83114 -4.9545,2.83113 -7.9036,8.25748 -2.9491,5.42634 -2.9491,12.74011 0,7.43173 2.9491,12.97604 2.9491,5.42634 7.9036,8.37544 4.9545,2.83114 10.9707,2.83114 6.0161,0 10.9706,-2.83114 5.0725,-2.9491 8.0216,-8.37544 2.9491,-5.54431 2.9491,-12.85808 z m 51.9043,33.50178 q -7.4318,0 -13.33,-2.47725 -5.8982,-2.5952 -9.3191,-7.07784 -3.421,-4.60059 -3.7749,-10.49879 h 11.0886 q 0.4719,4.83652 4.4827,7.90359 4.1287,3.06706 10.7347,3.06706 6.1341,0 9.673,-2.71317 3.539,-2.71317 3.539,-6.84191 0,-4.24671 -3.7749,-6.25209 -3.7748,-2.12336 -11.6784,-4.12874 -7.1958,-1.88743 -11.7964,-3.77485 -4.4827,-2.00539 -7.7856,-5.78024 -3.1851,-3.89281 -3.1851,-10.1449 0,-4.95449 2.9491,-9.08323 2.9491,-4.12874 8.3755,-6.48802 5.4263,-2.47724 12.3862,-2.47724 10.7347,0 17.3407,5.42634 6.606,5.42634 7.0778,14.86346 h -10.7347 q -0.3539,-5.07245 -4.1287,-8.13951 -3.6569,-3.06707 -9.909,-3.06707 -5.7802,0 -9.2012,2.47725 -3.4209,2.47724 -3.4209,6.48802 0,3.18503 2.0053,5.30838 2.1234,2.00539 5.1905,3.30299 3.185,1.17964 8.7293,2.71317 6.9599,1.88743 11.3245,3.77485 4.3647,1.76946 7.4318,5.42634 3.185,3.65689 3.303,9.55509 0,5.30838 -2.9491,9.55508 -2.9491,4.2467 -8.3755,6.72395 -5.3084,2.35928 -12.2682,2.35928 z"
         id="path7"
         inkscape:label="cards" />
    </g>
  </g>
</svg>
